<?xml version="1.0" encoding="utf-8"?>
<!-- Generator: Adobe Illustrator 21.1.0, SVG Export Plug-In . SVG Version: 6.00 Build 0)  -->
<svg version="1.1" id="Layer_1" xmlns="http://www.w3.org/2000/svg" xmlns:xlink="http://www.w3.org/1999/xlink" x="0px" y="0px"
	 viewBox="0 0 118 14" style="enable-background:new 0 0 118 14;" xml:space="preserve">
<style type="text/css">
	.st0{fill:#010000;}
</style>
<g>
	<g>
		<path class="st0" d="M0.7,5.7V3.9H2V1.3h2.4v2.6H6v1.8H4.5v5c0,0.4,0,0.6,0.2,0.7c0.1,0.1,0.4,0.1,0.9,0.1c0.1,0,0.2,0,0.2,0
			c0.1,0,0.2,0,0.3,0v1.8l-1.2,0c-1.2,0-2-0.2-2.4-0.6C2.2,12.5,2,12.1,2,11.5V5.7H0.7z"/>
	</g>
	<g>
		<path class="st0" d="M14,3.9c0.5,0.2,0.9,0.5,1.2,0.9c0.3,0.4,0.4,0.7,0.5,1.1c0.1,0.4,0.1,1,0.1,1.8v5.6h-2.5V7.5
			c0-0.5-0.1-0.9-0.3-1.2c-0.2-0.4-0.6-0.7-1.3-0.7c-0.6,0-1.1,0.2-1.5,0.7C9.8,6.7,9.7,7.3,9.7,8.1v5.1H7.2V0.5h2.5V5
			c0.4-0.5,0.8-0.9,1.2-1.1c0.5-0.2,1-0.3,1.5-0.3C13,3.6,13.5,3.7,14,3.9z"/>
	</g>
	<g>
		<path class="st0" d="M19.6,2.7h-2.5V0.4h2.5V2.7z M17.1,3.8h2.5v9.4h-2.5V3.8z"/>
	</g>
	<g>
		<path class="st0" d="M23,10.3c0,0.4,0.2,0.7,0.3,0.9c0.3,0.3,0.9,0.5,1.7,0.5c0.5,0,0.9-0.1,1.2-0.2c0.3-0.1,0.4-0.4,0.4-0.6
			c0-0.3-0.1-0.5-0.3-0.6C26,10,25.2,9.8,23.7,9.4c-1.1-0.3-1.8-0.6-2.3-1c-0.4-0.4-0.7-1-0.7-1.7c0-0.9,0.3-1.6,1-2.2
			c0.7-0.6,1.7-0.9,2.9-0.9c1.2,0,2.1,0.2,2.9,0.7c0.7,0.5,1.2,1.3,1.3,2.4h-2.5c0-0.3-0.1-0.6-0.3-0.8c-0.3-0.3-0.7-0.5-1.4-0.5
			c-0.5,0-0.9,0.1-1.2,0.2c-0.2,0.2-0.3,0.4-0.3,0.6c0,0.3,0.1,0.5,0.4,0.6c0.2,0.1,1.1,0.4,2.6,0.7c1,0.2,1.7,0.6,2.2,1.1
			c0.5,0.5,0.7,1.1,0.7,1.8c0,0.9-0.4,1.7-1,2.3c-0.7,0.6-1.8,0.9-3.2,0.9c-1.5,0-2.6-0.3-3.3-0.9c-0.7-0.6-1.1-1.4-1.1-2.4H23z"/>
	</g>
	<g>
		<path class="st0" d="M32.7,2.7h-2.5V0.4h2.5V2.7z M30.2,3.8h2.5v9.4h-2.5V3.8z"/>
	</g>
	<g>
		<path class="st0" d="M36.2,10.3c0.1,0.4,0.2,0.7,0.3,0.9c0.3,0.3,0.9,0.5,1.7,0.5c0.5,0,0.9-0.1,1.2-0.2c0.3-0.1,0.4-0.4,0.4-0.6
			c0-0.3-0.1-0.5-0.4-0.6c-0.2-0.2-1.1-0.4-2.6-0.8c-1.1-0.3-1.8-0.6-2.3-1c-0.4-0.4-0.7-1-0.7-1.7c0-0.9,0.3-1.6,1-2.2
			c0.7-0.6,1.7-0.9,2.9-0.9c1.2,0,2.1,0.2,2.9,0.7c0.7,0.5,1.2,1.3,1.3,2.4h-2.5c0-0.3-0.1-0.6-0.3-0.8c-0.3-0.3-0.7-0.5-1.4-0.5
			c-0.5,0-0.9,0.1-1.2,0.2c-0.2,0.2-0.3,0.4-0.3,0.6c0,0.3,0.1,0.5,0.4,0.6c0.2,0.1,1.1,0.4,2.6,0.7c1,0.2,1.7,0.6,2.2,1.1
			c0.5,0.5,0.7,1.1,0.7,1.8c0,0.9-0.3,1.7-1,2.3c-0.7,0.6-1.8,0.9-3.2,0.9c-1.5,0-2.6-0.3-3.3-0.9c-0.7-0.6-1.1-1.4-1.1-2.4H36.2z"
			/>
	</g>
	<g>
		<path class="st0" d="M51,4.4C51.7,4.9,52,5.7,52,6.9v6.4h-2.5V7.5c0-0.5-0.1-0.9-0.2-1.1c-0.2-0.5-0.7-0.7-1.4-0.7
			c-0.8,0-1.4,0.4-1.7,1.1c-0.2,0.4-0.2,0.9-0.2,1.4v5.1h-2.5V3.8h2.4v1.4c0.3-0.5,0.6-0.8,0.9-1c0.5-0.4,1.1-0.6,1.9-0.6
			C49.6,3.6,50.4,3.8,51,4.4z"/>
	</g>
	<g>
		<path class="st0" d="M59.6,4c0.7,0.3,1.2,0.8,1.6,1.4C61.7,6,61.9,6.6,62,7.4c0.1,0.4,0.1,1.1,0.1,1.9h-6.9c0,1,0.4,1.6,1,2
			c0.4,0.2,0.8,0.4,1.4,0.4c0.6,0,1-0.1,1.4-0.4c0.2-0.2,0.4-0.4,0.5-0.6H62c-0.1,0.6-0.4,1.1-0.9,1.7c-0.8,0.9-2,1.4-3.6,1.4
			c-1.3,0-2.4-0.4-3.3-1.2c-1-0.8-1.4-2-1.4-3.8c0-1.6,0.4-2.9,1.3-3.8c0.9-0.9,2-1.3,3.4-1.3C58.2,3.6,59,3.7,59.6,4z M55.9,6.1
			c-0.4,0.4-0.6,0.9-0.7,1.5h4.2c0-0.7-0.3-1.2-0.7-1.5c-0.4-0.3-0.9-0.5-1.5-0.5C56.8,5.6,56.3,5.8,55.9,6.1z"/>
	</g>
	<g>
		<path class="st0" d="M68.7,3.8h2.7L68,13.3h-2.6L62,3.8h2.8l2,7L68.7,3.8z"/>
	</g>
	<g>
		<path class="st0" d="M78.2,4c0.7,0.3,1.2,0.8,1.6,1.4c0.4,0.6,0.6,1.2,0.7,1.9c0.1,0.4,0.1,1.1,0.1,1.9h-6.9c0,1,0.4,1.6,1,2
			c0.4,0.2,0.8,0.4,1.4,0.4c0.6,0,1-0.1,1.4-0.4c0.2-0.2,0.4-0.4,0.5-0.6h2.5c-0.1,0.6-0.4,1.1-0.9,1.7c-0.8,0.9-2,1.4-3.6,1.4
			c-1.3,0-2.4-0.4-3.3-1.2c-1-0.8-1.4-2-1.4-3.8c0-1.6,0.4-2.9,1.3-3.8c0.9-0.9,2-1.3,3.4-1.3C76.8,3.6,77.5,3.7,78.2,4z M74.5,6.1
			c-0.3,0.4-0.6,0.9-0.7,1.5h4.3c0-0.7-0.3-1.2-0.7-1.5C77,5.8,76.6,5.6,76,5.6C75.3,5.6,74.8,5.8,74.5,6.1z"/>
	</g>
	<g>
		<path class="st0" d="M86.9,3.6c0,0,0.1,0,0.2,0v2.5c-0.2,0-0.3,0-0.4,0c-0.1,0-0.2,0-0.3,0c-1,0-1.7,0.3-2,1
			c-0.2,0.4-0.3,0.9-0.3,1.7v4.5h-2.5V3.8H84v1.7c0.4-0.6,0.7-1.1,1-1.3c0.5-0.4,1.1-0.6,1.8-0.6C86.8,3.6,86.9,3.6,86.9,3.6z"/>
	</g>
	<g>
		<path class="st0" d="M87.5,5.7V3.9h1.3V1.3h2.4v2.6h1.5v1.8h-1.5v5c0,0.4,0.1,0.6,0.2,0.7c0.1,0.1,0.4,0.1,0.9,0.1
			c0.1,0,0.2,0,0.2,0c0.1,0,0.2,0,0.3,0v1.8l-1.2,0c-1.2,0-2-0.2-2.4-0.6c-0.3-0.3-0.4-0.7-0.4-1.3V5.7H87.5z"/>
	</g>
	<g>
		<path class="st0" d="M100.6,3.9c0.5,0.2,0.9,0.5,1.2,0.9c0.3,0.4,0.4,0.7,0.5,1.1c0.1,0.4,0.1,1,0.1,1.8v5.6h-2.5V7.5
			c0-0.5-0.1-0.9-0.3-1.2c-0.2-0.4-0.6-0.7-1.3-0.7c-0.6,0-1.1,0.2-1.5,0.7c-0.3,0.4-0.5,1.1-0.5,1.9v5.1h-2.5V0.5h2.5V5
			c0.4-0.5,0.8-0.9,1.2-1.1c0.5-0.2,1-0.3,1.5-0.3C99.6,3.6,100.1,3.7,100.6,3.9z"/>
	</g>
	<g>
		<path class="st0" d="M107.6,7.5c0.5-0.1,0.8-0.1,1-0.2c0.4-0.2,0.5-0.4,0.5-0.7c0-0.4-0.1-0.7-0.4-0.8c-0.3-0.1-0.7-0.2-1.2-0.2
			c-0.6,0-1,0.1-1.3,0.4c-0.2,0.2-0.3,0.5-0.4,0.9h-2.4c0-0.8,0.3-1.5,0.7-2c0.7-0.8,1.8-1.3,3.4-1.3c1,0,2,0.2,2.8,0.6
			c0.8,0.4,1.2,1.2,1.2,2.3v4.3c0,0.3,0,0.7,0,1.1c0,0.3,0.1,0.5,0.1,0.7c0.1,0.1,0.2,0.2,0.4,0.3v0.4h-2.7
			c-0.1-0.2-0.1-0.4-0.1-0.5c0-0.2-0.1-0.4-0.1-0.6c-0.3,0.4-0.7,0.7-1.2,0.9c-0.5,0.3-1.1,0.5-1.8,0.5c-0.9,0-1.6-0.2-2.1-0.7
			c-0.6-0.5-0.8-1.2-0.8-2.1c0-1.2,0.4-2,1.4-2.5c0.5-0.3,1.2-0.5,2.2-0.6L107.6,7.5z M109.1,8.7c-0.2,0.1-0.3,0.2-0.5,0.2
			C108.5,9,108.2,9,108,9.1l-0.6,0.1c-0.5,0.1-0.9,0.2-1.1,0.3c-0.4,0.2-0.6,0.6-0.6,1.1c0,0.4,0.1,0.7,0.4,0.9
			c0.2,0.2,0.5,0.3,0.9,0.3c0.5,0,1-0.1,1.5-0.5c0.5-0.3,0.7-0.9,0.7-1.7V8.7z"/>
	</g>
	<g>
		<path class="st0" d="M112,5.7V3.9h1.3V1.3h2.4v2.6h1.5v1.8h-1.5v5c0,0.4,0.1,0.6,0.2,0.7c0.1,0.1,0.4,0.1,0.9,0.1
			c0.1,0,0.2,0,0.2,0c0.1,0,0.2,0,0.2,0v1.8l-1.2,0c-1.2,0-2-0.2-2.4-0.6c-0.3-0.3-0.4-0.7-0.4-1.3V5.7H112z"/>
	</g>
</g>
</svg>
